<svg xmlns="http://www.w3.org/2000/svg" viewBox="0 0 163.82 159.31"><defs><style>.cls-1{fill:#f38613;}.cls-2{fill:#fff;}</style></defs><g id="Layer_2" data-name="Layer 2"><g id="Layer_3" data-name="Layer 3"><path class="cls-1" d="M21.78,22.92c1.32-1.15,6-5.15,16-9.68C51.22,7.2,93.68-12,129.18,11c31.51,20.41,34.32,59,34.51,62.33,1.7,29.72-13.22,58.14-36.52,73.21-16.67,10.78-33,11.75-43.62,12.37C72,159.62,29.9,162.11,9.76,134.1c-10.42-14.49-10-30.29-9.58-50C.52,69.87,1.21,40.91,21.78,22.92Z"/><path class="cls-2" d="M106.06,74.58h0V74l-.16-.31-.15-.16a2.44,2.44,0,0,0-1.23-.92,37.63,37.63,0,0,0-4-1.07,178.78,178.78,0,0,0-24-1.54c-6.61,0-13.07.31-19.68.92a41.2,41.2,0,0,0-6.3.92,10.22,10.22,0,0,0-2,.62,2.39,2.39,0,0,0-1.23.92l-.15.15-.16.31v.46h0v.16c-.61,6.15-1.07,12.14-1.53,17.06s-.62,8.61-.62,10v.31a20.56,20.56,0,0,0,20.75,20.29H87.3a20.57,20.57,0,0,0,20.91-20.14v-.3c0-1.54-.31-5.23-.62-10C107.13,86.72,106.67,80.73,106.06,74.58ZM53,73a152.15,152.15,0,0,1,23.52-1.38c6.46,0,13.07.31,19.52.92a43.5,43.5,0,0,1,6.15.92c.62.16,1.23.31,1.69.47a.53.53,0,0,1,.31.15h0a.57.57,0,0,1-.46.15c-.15,0-.15,0-.31.16-.15,0-.31.15-.46.15a.57.57,0,0,0-.46.15.55.55,0,0,0-.46.16c-.16,0-.31.15-.62.15a.56.56,0,0,0-.46.16.93.93,0,0,0-.61.15,1.19,1.19,0,0,0-.62.15.88.88,0,0,0-.61.16,1,1,0,0,0-.62.15,1.73,1.73,0,0,0-.77.15,1.31,1.31,0,0,0-.76.16,1.4,1.4,0,0,0-.77.15,2,2,0,0,0-.93.15,1.89,1.89,0,0,0-.92.16H93.6a2,2,0,0,0-.92.15H65.16a5.3,5.3,0,0,1-1.53-.15h-.77a5.05,5.05,0,0,1-1.54-.16h-.61c-.62,0-1.08-.15-1.54-.15h-.46c-.62,0-1.08-.15-1.69-.15h-.31c-.62,0-1.08-.16-1.54-.16H55c-.62,0-1.08-.15-1.54-.15h0c-1.08-.15-1.84-.31-2.61-.46a5.29,5.29,0,0,1-1.69-.62c-.16,0-.16-.15-.31-.15a.57.57,0,0,1,.46-.15A12.11,12.11,0,0,1,53,73Zm53.65,28.9A19.14,19.14,0,0,1,87.3,120.55H65.62a19.17,19.17,0,0,1-19.37-18.76v-.31c0-1.38.31-5.07.62-9.84.31-4.61.92-10.14,1.38-16,.16,0,.16.15.31.15a47.69,47.69,0,0,0,8.15,1.54h.15c.77,0,1.39.15,2.15.15h.77c.77,0,1.69.15,2.62.15h.3c.93,0,1.85.16,2.92.16h.62c.92,0,1.84.15,2.77.15H91a3.08,3.08,0,0,0,1.23-.15,1.87,1.87,0,0,0,.92-.16,3.46,3.46,0,0,0,1.23-.15,2,2,0,0,0,.92-.15c.31,0,.62,0,.77-.16h1.23c.31,0,.62-.15.93-.15a1.39,1.39,0,0,0,.76-.15c.31,0,.62-.16.93-.16s.46-.15.76-.15.47-.16.77-.16.46-.15.62-.15a.57.57,0,0,0,.46-.15h.61c.16,0,.16,0,.31-.16.16,0,.46-.15.62-.15s.3-.15.46-.15.15,0,.31-.16a.15.15,0,0,0,.15-.15h.15c.62,5.69,1.08,11.37,1.39,15.83.46,4.77.61,8.61.61,9.84Z"/><path class="cls-2" d="M107.29,32.15A16.15,16.15,0,0,0,91.14,48.29a.77.77,0,0,0,1.54,0,14.61,14.61,0,0,1,29.21,0,14.39,14.39,0,0,1-11.84,14.3c-.77-8.15-1.38-14.3-1.38-14.3v-.15a1.65,1.65,0,0,0-.46-1.08,4.91,4.91,0,0,0-1.69-1.38,15.76,15.76,0,0,0-3.85-1.38c-1.53-.31-3.38-.77-5.38-1.08a1.48,1.48,0,0,0-.46,2.92h0a38.73,38.73,0,0,1,7.07,1.54c.46.15.77.3,1.23.46-.15,0-.3.15-.46.15s-.31.16-.46.16-.31.15-.46.15a.57.57,0,0,0-.31.15c-.15,0-.46.16-.61.16s-.16,0-.31.15c-.31.15-.62.15-.92.31h-.16c-.3,0-.61.15-1.07.15s-.62.16-.92.16c-.62.15-1.23.15-1.85.3a.88.88,0,0,0-.61.16l-3.23.46h0a2,2,0,0,0-.93.15c-.76,0-1.53.16-2.3.16s-1.38.15-2,.15a2.69,2.69,0,0,0-1.08.15c-3.38.16-6.91.31-10.76.31a166.79,166.79,0,0,1-21.37-1.38A45.89,45.89,0,0,1,49,48.75c-.15,0-.31-.15-.46-.15h0a.15.15,0,0,1-.15-.15.16.16,0,0,1-.16-.16h0c.16,0,.16-.15.31-.15a17.07,17.07,0,0,1,4-1.23,128.26,128.26,0,0,1,24.13-1.85c4,0,7.69.16,11.07.31A1.67,1.67,0,0,0,89.45,44a1.79,1.79,0,0,0-1.38-1.69c-3.54-.16-7.38-.31-11.38-.31a174,174,0,0,0-21.83,1.38,49.23,49.23,0,0,0-6.76,1.54A9.41,9.41,0,0,0,46,46c-.31.3-.62.46-.77.92A2.14,2.14,0,0,0,44.87,48v.16s-1.23,11.68-2.46,24.13c-.61,6.31-1.23,12.61-1.69,18-.15,2.61-.46,5.07-.61,6.92s-.16,3.38-.16,4.3v.31a25.19,25.19,0,0,0,7.84,18,26.11,26.11,0,0,0,18.3,7.38H87.76a26.37,26.37,0,0,0,18.3-7.38,25.89,25.89,0,0,0,7.84-18v-.31c0-.92-.16-2.3-.16-4.3-.46-7.38-1.84-21.83-3.07-33.05a16,16,0,0,0,12.91-18.76A17,17,0,0,0,107.29,32.15Zm3.07,69.64a21.51,21.51,0,0,1-6.92,15.83,23.26,23.26,0,0,1-16.14,6.46H65.62a23.3,23.3,0,0,1-16.14-6.46,22.74,22.74,0,0,1-6.91-15.83v-.31c0-.77,0-2.15.15-4,.46-6.61,1.54-18.76,2.61-29.37.46-5.22,1.08-10.14,1.39-13.68.15-1.07.15-2,.3-2.92.16,0,.16.15.31.15h0A32.12,32.12,0,0,0,51,52.75,126.88,126.88,0,0,0,76.39,54.9h4a25.42,25.42,0,0,0,3.38-.15h.62c.92,0,1.84-.15,2.61-.15h.77c.77,0,1.54-.16,2.31-.16h.77a50.73,50.73,0,0,0,7.38-.92c.3,0,.76-.15,1.07-.15h.31l2.15-.47h.15l3.23-.92s.16,0,.16-.15a.51.51,0,0,0,.3-.16h0c.16,1.23.31,2.77.47,4.46.61,6.77,1.69,16.91,2.61,26,.46,4.61.77,8.92,1.07,12.3s.47,6.15.47,7.23Z"/></g></g></svg>