<svg xmlns="http://www.w3.org/2000/svg" viewBox="0 0 163.82 159.31"><defs><style>.cls-1{fill:#f38613;}.cls-2{fill:#fff;}</style></defs><g id="Layer_2" data-name="Layer 2"><g id="Layer_3" data-name="Layer 3"><path class="cls-1" d="M21.78,22.92c1.32-1.15,6-5.15,16-9.68C51.22,7.2,93.68-12,129.18,11c31.51,20.41,34.32,59,34.51,62.33,1.7,29.72-13.22,58.14-36.52,73.21-16.67,10.78-33,11.75-43.62,12.37C72,159.62,29.9,162.11,9.76,134.1c-10.42-14.49-10-30.29-9.58-50C.52,69.87,1.21,40.91,21.78,22.92Z"/><path class="cls-2" d="M104.14,51.24a16.83,16.83,0,0,1-11.47-21c0-.13.13-.39.13-.52a2.5,2.5,0,0,0-1.67-3.22,1.65,1.65,0,0,0-.78-.13H68.19A10.2,10.2,0,0,0,58,36.55V73.92a4.55,4.55,0,0,0-.26,1.29A1.81,1.81,0,0,0,58,76v17.4A2.58,2.58,0,0,0,60.59,96H73.34v34.41a2.59,2.59,0,0,0,2.58,2.58H88.16a2.59,2.59,0,0,0,2.58-2.58V95.82H103.5a2.58,2.58,0,0,0,2.57-2.57V53.82A3.15,3.15,0,0,0,104.14,51.24ZM85.46,127.65H78.37V96.21h7.09Zm15.33-37H63.16V78a7.13,7.13,0,0,1,1.16.9,9.72,9.72,0,0,0,6.57,2.71h.78a9.79,9.79,0,0,0,6.83-3.87c1.16-1.28,1.8-2.06,3.48-2.19s2.32.39,3.73,1.55A9.38,9.38,0,0,0,99,77c.38-.38.64-.77,1-1.16a5.46,5.46,0,0,1,.77-.9Zm0-21.65A11.59,11.59,0,0,0,96,72.5c-1.16,1.29-1.8,2.06-3.48,2.19s-2.32-.38-3.73-1.54a9.39,9.39,0,0,0-13.28.25c-.25.39-.64.65-.9,1-1.29,1.29-1.93,1.94-3.48,2.07s-2.32-.39-3.73-1.55A11.39,11.39,0,0,0,63,72.5V36.42a5,5,0,0,1,5-5H86.87a31.32,31.32,0,0,0-.25,3.48,22.08,22.08,0,0,0,14,20.61Z"/></g></g></svg>