<svg xmlns="http://www.w3.org/2000/svg" viewBox="0 0 211.41 163.55"><defs><style>.cls-1{fill:#f38613;}.cls-2{fill:#f1ebea;}</style></defs><g id="Layer_2" data-name="Layer 2"><g id="Layer_1-2" data-name="Layer 1"><path class="cls-1" d="M37.17,37c1.07-1.39,4.94-6.21,13.92-12.55,12-8.48,50.05-35.36,89.27-19.52C175.17,19,185.25,56.31,186.07,59.55c7.3,28.86-1.95,59.59-22,78.81-14.32,13.75-30.18,17.8-40.47,20.43-11.23,2.87-52.07,13.3-77.17-10.38-13-12.25-15.61-27.84-18.89-47.3C25.2,87.09,20.38,58.53,37.17,37Z"/><path class="cls-2" d="M79,24.12V44.44l-11.41,1c0-1.55,0-2.89-.12-4A9,9,0,0,0,67,38.68a2.68,2.68,0,0,0-1.26-1.45,4.23,4.23,0,0,0-2.27-.31l-2.15.19V60c0,1.51.44,2.49,1.31,3a8.43,8.43,0,0,0,4.37.43V76.24L35.18,79V66.16A9.25,9.25,0,0,0,39.53,65a3.64,3.64,0,0,0,1.3-3.19V38.9l-2.11.19a4.62,4.62,0,0,0-2.27.7,3.49,3.49,0,0,0-1.29,1.67,9.63,9.63,0,0,0-.53,2.82c-.07,1.15-.11,2.5-.11,4l-11.44,1V29Z"/><path class="cls-2" d="M80.49,55.89a22.29,22.29,0,0,1,1.77-9.1,19.41,19.41,0,0,1,5-6.87,24.89,24.89,0,0,1,7.88-4.59,39,39,0,0,1,10.3-2.22,36.33,36.33,0,0,1,10.3.41,20.46,20.46,0,0,1,7.87,3.21,15.43,15.43,0,0,1,5,6,20,20,0,0,1,1.79,8.78,22.21,22.21,0,0,1-1.79,9.07,20,20,0,0,1-5,6.94,24.53,24.53,0,0,1-7.87,4.62,39,39,0,0,1-10.3,2.22A36.7,36.7,0,0,1,95.19,74a20.24,20.24,0,0,1-7.88-3.25,15.31,15.31,0,0,1-5-6.06A20.18,20.18,0,0,1,80.49,55.89Zm19.73-1.73a39.88,39.88,0,0,0,.26,4.92,10.06,10.06,0,0,0,.85,3.18,3.5,3.5,0,0,0,1.59,1.67,4.87,4.87,0,0,0,2.57.34,5.37,5.37,0,0,0,2.55-.79,4.63,4.63,0,0,0,1.59-1.94,10.73,10.73,0,0,0,.85-3.34,43.47,43.47,0,0,0,.24-5q0-5.82-1.09-8.07t-4.14-2a5.73,5.73,0,0,0-2.57.76,4.25,4.25,0,0,0-1.59,1.9,11.64,11.64,0,0,0-.85,3.34A40.94,40.94,0,0,0,100.22,54.16Z"/><path class="cls-2" d="M159,17.13V51.59c0,1.55.38,2.53,1.14,2.93A5.18,5.18,0,0,0,163,55l.94-.08V67.76l-29.19,2.55V57.45l1.35-.12a3.51,3.51,0,0,0,2.72-1.4,4.39,4.39,0,0,0,.89-2.59V35.59a3.15,3.15,0,0,0-1.27-2.85,4.42,4.42,0,0,0-2.93-.7l-.76.07V19.24Z"/><path class="cls-2" d="M191.68,14.26V48.72q0,2.33,1.14,2.94a5.07,5.07,0,0,0,2.91.45l.94-.08V64.89l-29.19,2.56V54.59l1.35-.12a3.55,3.55,0,0,0,2.72-1.4,4.4,4.4,0,0,0,.88-2.59V32.73a3.2,3.2,0,0,0-1.26-2.86,4.42,4.42,0,0,0-2.93-.69l-.76.06V16.38Z"/><path class="cls-2" d="M79,24.12V44.44l-11.41,1c0-1.55,0-2.89-.12-4A9,9,0,0,0,67,38.68a2.68,2.68,0,0,0-1.26-1.45,4.23,4.23,0,0,0-2.27-.31l-2.15.19V60c0,1.51.44,2.49,1.31,3a8.43,8.43,0,0,0,4.37.43V76.24L35.18,79V66.16A9.25,9.25,0,0,0,39.53,65a3.64,3.64,0,0,0,1.3-3.19V38.9l-2.11.19a4.62,4.62,0,0,0-2.27.7,3.49,3.49,0,0,0-1.29,1.67,9.63,9.63,0,0,0-.53,2.82c-.07,1.15-.11,2.5-.11,4l-11.44,1V29Z"/><path class="cls-2" d="M80.49,55.89a22.29,22.29,0,0,1,1.77-9.1,19.41,19.41,0,0,1,5-6.87,24.89,24.89,0,0,1,7.88-4.59,39,39,0,0,1,10.3-2.22,36.33,36.33,0,0,1,10.3.41,20.46,20.46,0,0,1,7.87,3.21,15.43,15.43,0,0,1,5,6,20,20,0,0,1,1.79,8.78,22.21,22.21,0,0,1-1.79,9.07,20,20,0,0,1-5,6.94,24.53,24.53,0,0,1-7.87,4.62,39,39,0,0,1-10.3,2.22A36.7,36.7,0,0,1,95.19,74a20.24,20.24,0,0,1-7.88-3.25,15.31,15.31,0,0,1-5-6.06A20.18,20.18,0,0,1,80.49,55.89Zm19.73-1.73a39.88,39.88,0,0,0,.26,4.92,10.06,10.06,0,0,0,.85,3.18,3.5,3.5,0,0,0,1.59,1.67,4.87,4.87,0,0,0,2.57.34,5.37,5.37,0,0,0,2.55-.79,4.63,4.63,0,0,0,1.59-1.94,10.73,10.73,0,0,0,.85-3.34,43.47,43.47,0,0,0,.24-5q0-5.82-1.09-8.07t-4.14-2a5.73,5.73,0,0,0-2.57.76,4.25,4.25,0,0,0-1.59,1.9,11.64,11.64,0,0,0-.85,3.34A40.94,40.94,0,0,0,100.22,54.16Z"/><path class="cls-2" d="M159,17.13V51.59c0,1.55.38,2.53,1.14,2.93A5.18,5.18,0,0,0,163,55l.94-.08V67.76l-29.19,2.55V57.45l1.35-.12a3.51,3.51,0,0,0,2.72-1.4,4.39,4.39,0,0,0,.89-2.59V35.59a3.15,3.15,0,0,0-1.27-2.85,4.42,4.42,0,0,0-2.93-.7l-.76.07V19.24Z"/><path class="cls-2" d="M191.68,14.26V48.72q0,2.33,1.14,2.94a5.07,5.07,0,0,0,2.91.45l.94-.08V64.89l-29.19,2.56V54.59l1.35-.12a3.55,3.55,0,0,0,2.72-1.4,4.4,4.4,0,0,0,.88-2.59V32.73a3.2,3.2,0,0,0-1.26-2.86,4.42,4.42,0,0,0-2.93-.69l-.76.06V16.38Z"/><path class="cls-2" d="M38.07,119.45l-11.93,1v6.44a3,3,0,0,0,1,2.57,5.77,5.77,0,0,0,3.66.49v12.86L0,145.56V132.7a9.28,9.28,0,0,0,4.37-1.2,3.62,3.62,0,0,0,1.32-3.18V110.78c0-1.53-.44-2.53-1.32-3A8.33,8.33,0,0,0,0,107.36V94.49L30.82,91.8v12.86a6.48,6.48,0,0,0-3.66,1.13,3.54,3.54,0,0,0-1,2.78v5.58l11.93-1v-5.58a3,3,0,0,0-1-2.6,5.83,5.83,0,0,0-3.64-.5V91.57l30.78-2.69v12.86a9.15,9.15,0,0,0-4.35,1.2,3.67,3.67,0,0,0-1.3,3.21V123.7c0,1.5.43,2.48,1.3,3a8.23,8.23,0,0,0,4.35.43V140l-30.78,2.69V129.78A6.46,6.46,0,0,0,37,128.64a3.44,3.44,0,0,0,1-2.74Z"/><path class="cls-2" d="M85.53,104.69a15.48,15.48,0,0,0-3,.53,14.65,14.65,0,0,0-2.16.79,7.51,7.51,0,0,0-1.49.91l-1,.87.34.32c.44-.27.92-.54,1.44-.82a5.35,5.35,0,0,1,2-.52,4.71,4.71,0,0,1,3.53,1c1,.8,1.49,2.17,1.49,4.11a5.84,5.84,0,0,1-2.27,4.66,10.77,10.77,0,0,1-6.08,2.21,7.45,7.45,0,0,1-5.81-1.59c-1.44-1.27-2.17-3.19-2.17-5.76a9.16,9.16,0,0,1,1.18-4.31A12.83,12.83,0,0,1,75.11,103a24.14,24.14,0,0,1,6.31-3.29,36.13,36.13,0,0,1,9.24-1.89,37.44,37.44,0,0,1,10.54.29,16.22,16.22,0,0,1,6.36,2.57,8.85,8.85,0,0,1,3.12,4.06,14,14,0,0,1,.85,4.81v13.56a27.71,27.71,0,0,0,.21,4.26q.21,1.11,1.56,1a1.72,1.72,0,0,0,1.51-1.15,10.62,10.62,0,0,0,.43-3.56v-4.33l4-.35v4.4a26.88,26.88,0,0,1-.52,5.58,10.18,10.18,0,0,1-2,4.3,10,10,0,0,1-4,2.94,20.25,20.25,0,0,1-6.38,1.45,18.88,18.88,0,0,1-5.8-.24,10,10,0,0,1-3.66-1.54A6.24,6.24,0,0,1,95,133.77a4.77,4.77,0,0,1-.57-2.09l-.55,0a6.34,6.34,0,0,1-1.2,2.81,10,10,0,0,1-2.74,2.51,17.93,17.93,0,0,1-4.19,2,23.9,23.9,0,0,1-5.57,1.1,23.55,23.55,0,0,1-5.42-.1,10.61,10.61,0,0,1-4.16-1.44,7.26,7.26,0,0,1-2.67-2.95A10,10,0,0,1,67,131a7.8,7.8,0,0,1,1.87-5.42,15,15,0,0,1,4.71-3.46,41.72,41.72,0,0,1,6.19-2.38,53.05,53.05,0,0,0,6.19-2.26,16.66,16.66,0,0,0,4.71-3,6.1,6.1,0,0,0,1.88-4.67,5.12,5.12,0,0,0-1.63-4C89.78,104.84,88,104.48,85.53,104.69Zm7,14.4a6.86,6.86,0,0,1-1.91,2c-.76.51-1.5,1-2.2,1.51a8.71,8.71,0,0,0-1.84,1.68,3.75,3.75,0,0,0-.78,2.45,3.35,3.35,0,0,0,.62,2,2.56,2.56,0,0,0,2.43.71,3.58,3.58,0,0,0,2.65-1.5,5.91,5.91,0,0,0,1-3.64Z"/><path class="cls-2" d="M123.91,112.36a5.2,5.2,0,0,0-1.69-2.13,6.12,6.12,0,0,0-3.58-.39V97l27.84-2.44V107.4a4.63,4.63,0,0,0-2.86.89,1.83,1.83,0,0,0-.13,2l3.75,10.31.52,0,4-11q.53-1.33-.12-2c-.43-.41-1.38-.55-2.86-.42V94.34L168,92.65v12.87a7.25,7.25,0,0,0-3.57,1,5.74,5.74,0,0,0-1.74,2.46l-9.29,23.18-20.24,1.77Z"/><path class="cls-2" d="M210.23,101.62l-9.53.83a7.54,7.54,0,0,0-3.12-3.68,7.18,7.18,0,0,0-4.41-1.07,5,5,0,0,0-2.48.79,2.07,2.07,0,0,0-.91,1.8,2.05,2.05,0,0,0,1.59,2,20.9,20.9,0,0,0,4,.91q2.4.34,5.21.88a19.27,19.27,0,0,1,5.22,1.78,10.77,10.77,0,0,1,4,3.57,12.61,12.61,0,0,1,.21,11.91,12.67,12.67,0,0,1-3.79,4.14,20.18,20.18,0,0,1-5.67,2.73,33.27,33.27,0,0,1-7,1.37,32,32,0,0,1-7-.11,20.27,20.27,0,0,1-6.26-1.86L180,130l-9.15.8v-13.9l9.5-.83a10.08,10.08,0,0,0,3.42,4,7,7,0,0,0,4.56,1.13,4.46,4.46,0,0,0,2.72-1,2.29,2.29,0,0,0,.81-1.65,2.15,2.15,0,0,0-1.59-2.06,19.06,19.06,0,0,0-3.94-1l-5.15-.91A17.67,17.67,0,0,1,176,112.9a11,11,0,0,1-3.94-3.49,10.6,10.6,0,0,1-1.59-6.19A11.23,11.23,0,0,1,171.73,98a12.63,12.63,0,0,1,3.62-4.23,20.15,20.15,0,0,1,5.55-2.93,28.83,28.83,0,0,1,7-1.47,28.12,28.12,0,0,1,7.68.29,16.47,16.47,0,0,1,5.12,1.65l.34-2.5,9.19-.8Z"/><path class="cls-2" d="M38.07,119.45l-11.93,1v6.44a3,3,0,0,0,1,2.57,5.77,5.77,0,0,0,3.66.49v12.86L0,145.56V132.7a9.28,9.28,0,0,0,4.37-1.2,3.62,3.62,0,0,0,1.32-3.18V110.78c0-1.53-.44-2.53-1.32-3A8.33,8.33,0,0,0,0,107.36V94.49L30.82,91.8v12.86a6.48,6.48,0,0,0-3.66,1.13,3.54,3.54,0,0,0-1,2.78v5.58l11.93-1v-5.58a3,3,0,0,0-1-2.6,5.83,5.83,0,0,0-3.64-.5V91.57l30.78-2.69v12.86a9.15,9.15,0,0,0-4.35,1.2,3.67,3.67,0,0,0-1.3,3.21V123.7c0,1.5.43,2.48,1.3,3a8.23,8.23,0,0,0,4.35.43V140l-30.78,2.69V129.78A6.46,6.46,0,0,0,37,128.64a3.44,3.44,0,0,0,1-2.74Z"/><path class="cls-2" d="M85.53,104.69a15.48,15.48,0,0,0-3,.53,14.65,14.65,0,0,0-2.16.79,7.51,7.51,0,0,0-1.49.91l-1,.87.34.32c.44-.27.92-.54,1.44-.82a5.35,5.35,0,0,1,2-.52,4.71,4.71,0,0,1,3.53,1c1,.8,1.49,2.17,1.49,4.11a5.84,5.84,0,0,1-2.27,4.66,10.77,10.77,0,0,1-6.08,2.21,7.45,7.45,0,0,1-5.81-1.59c-1.44-1.27-2.17-3.19-2.17-5.76a9.16,9.16,0,0,1,1.18-4.31A12.83,12.83,0,0,1,75.11,103a24.14,24.14,0,0,1,6.31-3.29,36.13,36.13,0,0,1,9.24-1.89,37.44,37.44,0,0,1,10.54.29,16.22,16.22,0,0,1,6.36,2.57,8.85,8.85,0,0,1,3.12,4.06,14,14,0,0,1,.85,4.81v13.56a27.71,27.71,0,0,0,.21,4.26q.21,1.11,1.56,1a1.72,1.72,0,0,0,1.51-1.15,10.62,10.62,0,0,0,.43-3.56v-4.33l4-.35v4.4a26.88,26.88,0,0,1-.52,5.58,10.18,10.18,0,0,1-2,4.3,10,10,0,0,1-4,2.94,20.25,20.25,0,0,1-6.38,1.45,18.88,18.88,0,0,1-5.8-.24,10,10,0,0,1-3.66-1.54A6.24,6.24,0,0,1,95,133.77a4.77,4.77,0,0,1-.57-2.09l-.55,0a6.34,6.34,0,0,1-1.2,2.81,10,10,0,0,1-2.74,2.51,17.93,17.93,0,0,1-4.19,2,23.9,23.9,0,0,1-5.57,1.1,23.55,23.55,0,0,1-5.42-.1,10.61,10.61,0,0,1-4.16-1.44,7.26,7.26,0,0,1-2.67-2.95A10,10,0,0,1,67,131a7.8,7.8,0,0,1,1.87-5.42,15,15,0,0,1,4.71-3.46,41.72,41.72,0,0,1,6.19-2.38,53.05,53.05,0,0,0,6.19-2.26,16.66,16.66,0,0,0,4.71-3,6.1,6.1,0,0,0,1.88-4.67,5.12,5.12,0,0,0-1.63-4C89.78,104.84,88,104.48,85.53,104.69Zm7,14.4a6.86,6.86,0,0,1-1.91,2c-.76.51-1.5,1-2.2,1.51a8.71,8.71,0,0,0-1.84,1.68,3.75,3.75,0,0,0-.78,2.45,3.35,3.35,0,0,0,.62,2,2.56,2.56,0,0,0,2.43.71,3.58,3.58,0,0,0,2.65-1.5,5.91,5.91,0,0,0,1-3.64Z"/><path class="cls-2" d="M123.91,112.36a5.2,5.2,0,0,0-1.69-2.13,6.12,6.12,0,0,0-3.58-.39V97l27.84-2.44V107.4a4.63,4.63,0,0,0-2.86.89,1.83,1.83,0,0,0-.13,2l3.75,10.31.52,0,4-11q.53-1.33-.12-2c-.43-.41-1.38-.55-2.86-.42V94.34L168,92.65v12.87a7.25,7.25,0,0,0-3.57,1,5.74,5.74,0,0,0-1.74,2.46l-9.29,23.18-20.24,1.77Z"/><path class="cls-2" d="M210.23,101.62l-9.53.83a7.54,7.54,0,0,0-3.12-3.68,7.18,7.18,0,0,0-4.41-1.07,5,5,0,0,0-2.48.79,2.07,2.07,0,0,0-.91,1.8,2.05,2.05,0,0,0,1.59,2,20.9,20.9,0,0,0,4,.91q2.4.34,5.21.88a19.27,19.27,0,0,1,5.22,1.78,10.77,10.77,0,0,1,4,3.57,12.61,12.61,0,0,1,.21,11.91,12.67,12.67,0,0,1-3.79,4.14,20.18,20.18,0,0,1-5.67,2.73,33.27,33.27,0,0,1-7,1.37,32,32,0,0,1-7-.11,20.27,20.27,0,0,1-6.26-1.86L180,130l-9.15.8v-13.9l9.5-.83a10.08,10.08,0,0,0,3.42,4,7,7,0,0,0,4.56,1.13,4.46,4.46,0,0,0,2.72-1,2.29,2.29,0,0,0,.81-1.65,2.15,2.15,0,0,0-1.59-2.06,19.06,19.06,0,0,0-3.94-1l-5.15-.91A17.67,17.67,0,0,1,176,112.9a11,11,0,0,1-3.94-3.49,10.6,10.6,0,0,1-1.59-6.19A11.23,11.23,0,0,1,171.73,98a12.63,12.63,0,0,1,3.62-4.23,20.15,20.15,0,0,1,5.55-2.93,28.83,28.83,0,0,1,7-1.47,28.12,28.12,0,0,1,7.68.29,16.47,16.47,0,0,1,5.12,1.65l.34-2.5,9.19-.8Z"/></g></g></svg>