<svg xmlns="http://www.w3.org/2000/svg" viewBox="0 0 163.82 159.31"><defs><style>.cls-1{fill:#f38613;}.cls-2{fill:#fff;}</style></defs><g id="Layer_2" data-name="Layer 2"><g id="Layer_3" data-name="Layer 3"><path class="cls-1" d="M21.78,22.92c1.32-1.15,6-5.15,16-9.68C51.22,7.2,93.68-12,129.18,11c31.51,20.41,34.32,59,34.51,62.33,1.7,29.72-13.22,58.14-36.52,73.21-16.67,10.78-33,11.75-43.62,12.37C72,159.62,29.9,162.11,9.76,134.1c-10.42-14.49-10-30.29-9.58-50C.52,69.87,1.21,40.91,21.78,22.92Z"/><polygon class="cls-2" points="106.64 125.14 110.88 124.36 107.63 120.2 106.64 125.14"/><polygon class="cls-2" points="132.45 77.28 132.93 80.39 136.02 78.14 132.45 77.28"/><polygon class="cls-2" points="79.44 44.39 75.87 43.53 76.35 46.64 79.44 44.39"/><polygon class="cls-2" points="94.46 52.03 91.35 51.52 92.56 55.17 94.46 52.03"/><polygon class="cls-2" points="50.76 80.39 51.97 84.01 53.87 80.9 50.76 80.39"/><polygon class="cls-2" points="109.97 115.4 111.87 112.29 108.76 111.78 109.97 115.4"/><polygon class="cls-2" points="96.85 55.17 95.96 56.94 97.81 56.49 96.85 55.17"/><polygon class="cls-2" points="53.84 86.86 52.96 88.63 54.78 88.17 53.84 86.86"/><polygon class="cls-2" points="100.66 120.2 102.51 119.78 101.54 118.43 100.66 120.2"/><path class="cls-2" d="M114,61.56a14.45,14.45,0,0,0-2.76-.3,7.51,7.51,0,0,0-7.24,4.3,58.65,58.65,0,0,0-3.47,10.7h0v0h0c-.45,1.82-4.31,12.18-12,16.76-.54.33-1.1.62-1.69.92a29.28,29.28,0,0,1-12.5,2.41A54.61,54.61,0,0,1,57,93.4a18.18,18.18,0,0,0-6.11-1.23,8.65,8.65,0,0,0-3.63.72,7.14,7.14,0,0,0-3.75,4.62c-1.4,4.91.83,12.2,3.65,16.55,6.14,9.5,15,14.94,24.49,14.94A24.16,24.16,0,0,0,82,126.67l.05,0a28.4,28.4,0,0,0,10.81-9.15A38.52,38.52,0,0,0,97,110l.29.13,0-.32c1.23.11,2.47.13,3.65.13a29.5,29.5,0,0,0,12.58-2.41c.46-.22.89-.43,1.26-.65,11-6.19,15-15.88,11.83-28.86C123.68,65.26,117.43,62.23,114,61.56Zm-23.87,53.9a25.25,25.25,0,0,1-9.53,8.07l0,0h-.06a20.46,20.46,0,0,1-8.77,2c-8.29,0-16.2-4.88-21.68-13.36-2.38-3.7-4.31-10-3.24-13.76A3.55,3.55,0,0,1,48.69,96c1.53-.72,4-.51,7.14.62a57.59,57.59,0,0,0,18.48,3.19,32.87,32.87,0,0,0,14-2.73,19.29,19.29,0,0,0,2-1.08A27.4,27.4,0,0,0,99,87.1l.85-1.34-.26,1.58C98.16,96.25,95.35,108.35,90.12,115.46Zm23.09-11.62c-.32.19-.69.37-1,.54a26.08,26.08,0,0,1-11.08,2.09c-.73,0-1.45,0-2.2-.06l0-.29-.14-.05-.19-.06.08-.27h0c4.75-13.68,5.77-30,5.82-30.71a6.4,6.4,0,0,1,.22-.84l-.33.14-.08-.16.14-.06-.14.06.49-.24c.59-2,1.85-6,2.25-6.84a3.91,3.91,0,0,1,1.88-2,7.27,7.27,0,0,1,4.4-.22c2.12.43,7.38,2.63,10.09,13.85C126.23,90.37,123,98.34,113.21,103.84Z"/><path class="cls-2" d="M53.2,70.47h0c1,3.19,2.92,7.43,6.12,10.32.27.25.53.46.8.67,7.3,5.72,15,5.67,22.89-.1C90.73,75.7,91,70.57,90.52,68c-.73-3.59-2.74-5.58-5.66-5.76a41,41,0,0,0-8.19.67c.86,0-8.55,1-14.38-3.3-.34-.27-.72-.57-1-.86-5.72-5.18-7.62-15.32-7.86-20-.16-3.19-1-5.5-2.44-6.82a5.37,5.37,0,0,0-4.32-1.28c-3.76.43-8.08,4-10.22,7.13-6.58,9.53-6,20.45,1.28,27.13h0A21.06,21.06,0,0,0,47,69.74,27.26,27.26,0,0,0,53.2,70.47Zm25.49-4.78c.16,0,5.07-.54,5.93-.48a2.76,2.76,0,0,1,1.66.64,5.16,5.16,0,0,1,1.29,2.76c.29,1.51.29,5.5-6.36,10.36-6.9,5-13,5.07-19.32.16-.21-.16-.43-.35-.64-.54a20.52,20.52,0,0,1-5-8.21h0C66.8,69.79,78.07,65.9,78.69,65.69Zm-39-2.92c-6.2-5.64-6.54-15-.86-23.26,1.77-2.58,5.4-5.58,8.13-5.88a2.33,2.33,0,0,1,2,.54c.59.53,1.34,1.82,1.47,4.77.27,5.45,2.42,16.21,8.83,22,.43.37.86.72,1.29,1a20.2,20.2,0,0,0,8.42,3.38c-6.49,1.53-15.21,3-21.33,1.48a18.25,18.25,0,0,1-7.94-4.1Z"/><path class="cls-2" d="M53.68,65.31a48.48,48.48,0,0,0,7-.56c-.51-.29-22.51-3.51-22.94-18.35-1.69,5.31-.77,10.54,2.77,14.17h0l.59.59a16.08,16.08,0,0,0,7,3.56A22.11,22.11,0,0,0,53.68,65.31Z"/><path class="cls-2" d="M56.55,117c4.43,4.21,9.69,6.52,15.13,6.52a18.76,18.76,0,0,0,7.95-1.77l.1-.05a23.15,23.15,0,0,0,8.78-7.46c3.81-5.18,6.27-13.23,7.88-20.58C90.65,106.07,73.16,122.67,56.55,117Z"/></g></g></svg>